<svg width="502" height="530" viewBox="0 0 502 530" fill="none" xmlns="http://www.w3.org/2000/svg">
<g clip-path="url(#clip0_255_588)">
<path d="M277.139 177.77C280.337 174.53 284.013 171.626 287.189 168.322C296.822 158.301 306.388 148.087 315.999 138.001C321.969 131.747 334.977 117.338 340.728 112.319C342.214 110.993 343.798 109.125 346.13 108.364C346.9 108.089 347.811 108.63 348.379 109.222C350.823 111.674 348.995 114.496 348.189 116.735C346.12 122.173 344.862 133.032 343.216 139.475C337.544 161.452 331.551 183.545 324.692 205.224C324.336 205.857 324.75 206.215 325.375 206.353C326.261 206.615 340.5 204.199 342.578 203.745C347.4 202.672 350.899 200.915 355.371 199.461C399.847 184.646 445.179 172.488 489.048 155.938C491.807 154.952 498.723 150.167 500.641 154.83C501.6 157.161 495.54 160.267 493.734 161.708C487.383 166.87 479.925 171.343 472.653 175.316C456.957 183.891 441.566 197.055 426.928 207.419C411.207 218.605 395.222 229.451 379.655 240.871C367.597 249.736 356.132 259.472 343.416 267.487C342.919 268.749 349.071 271.899 350.136 272.675C364.067 282.802 377.218 294.003 391.023 304.391C412.915 320.78 438.948 336.627 462.922 349.886C470.508 354.041 479.544 357.389 486.746 361.681C489.478 363.306 498.578 369.522 490.559 370.943C486.485 371.677 464.606 364.825 459.056 363.195C423.538 352.834 388.94 337.88 353.412 328.317C346.008 326.338 337.736 325.175 330.65 322.865C324.472 320.882 318.916 317.374 312.928 315.106C315.157 323.344 319.544 330.739 322.778 338.546C347.035 397.024 373.172 454.686 396.66 513.44C397.619 515.772 399.578 520.348 398.818 522.716C397.997 525.322 395.53 525.698 393.865 523.619C358.881 478.227 327.813 430.207 295.423 382.948C285.535 368.484 274.751 354.558 265.032 339.962C264.195 340.044 264.095 340.586 263.803 341.196C258.347 351.604 255.199 364.077 250.933 374.999C244.95 390.51 238.883 404.75 233.638 420.72C228.822 435.235 225.075 452.188 218.851 465.978C218.081 467.699 217.055 470.957 214.752 469.323C213.992 468.8 213.722 468.028 213.494 467.17C213.013 465.174 213.107 458.418 213.068 455.83C212.261 423.157 212.289 390.187 210.773 357.552C210.289 346.665 208.718 336.385 207.246 325.563L178.533 336.333C152.271 348.54 126.009 360.747 99.9677 373.382C84.7917 380.758 65.9907 393.045 49.814 396.732C45.4643 397.709 41.1532 395.491 45.1822 391.738C52.201 385.181 61.4171 378.923 68.9331 372.549C93.7746 351.526 118.658 330.415 143.368 309.221C154.704 299.53 165.775 289.284 177.374 279.933C177.252 278.965 176.781 279.061 176.046 278.818C172.309 277.624 161.916 277.002 157.502 276.556C142.109 275.048 126.526 273.824 111.135 272.531C76.5239 269.725 41.8387 270.632 7.19225 268.344C5.64293 268.247 3.81139 266.517 4.75454 264.878C5.61427 263.414 13.4476 261.048 15.3755 260.576C28.6812 257.554 43.4689 255.882 56.9094 253.245C88.8938 247.088 120.695 240.201 152.494 233.098C163.057 230.695 173.46 227.627 184.167 226.257C170.818 206.02 158.02 185.296 141.1 167.853C134.9 161.468 126.643 155.601 121.043 149.074C118.964 146.636 116.042 143.85 119.875 141.395C120.706 140.881 125.085 143.292 127.073 144.026C130.403 145.294 134.948 147.355 138.159 149.316L214.524 184.251C213.206 169.326 212.209 154.287 210.677 139.366C207.525 109.484 203.366 79.8171 200.9 49.834C199.752 36.2216 199.246 22.3798 197.906 8.83617C197.479 4.72397 201.364 4.27498 204.02 6.50595C207.59 9.49436 211.843 23.7316 214.155 28.9043C232.588 70.0933 251.342 111.168 267.639 153.265C270.747 161.334 273.492 169.604 277.155 177.403L277.139 177.77Z" fill="#F7F6F4"/>
</g>
<defs>
<clipPath id="clip0_255_588">
<rect width="502" height="530" fill="white"/>
</clipPath>
</defs>
</svg>
