<svg width="1073" height="197" viewBox="0 0 1073 197" fill="none" xmlns="http://www.w3.org/2000/svg">
<g clip-path="url(#clip0_6001_1052)">
<path d="M605.014 191.818L602.111 188.985C601.903 188.778 601.765 188.639 601.627 188.363C599.414 184.563 598.585 180.278 597.824 175.994L596.58 98.7422V77.1834C596.58 76.4925 596.303 75.8015 595.819 75.3869C595.404 74.9032 594.713 74.6268 594.022 74.6268H569.063C568.303 74.6268 567.612 74.9723 567.197 75.456C566.367 76.3543 566.16 77.8744 567.197 78.98C572.382 84.9225 573.834 92.5233 574.387 101.092C575.631 120.923 575.631 150.082 574.387 169.914C573.972 176.824 572.451 186.636 567.404 191.749C567.404 191.749 567.404 191.749 567.404 191.818C566.229 192.924 566.367 194.582 567.266 195.549C567.681 196.033 568.372 196.309 569.133 196.309H603.355C604.116 196.309 604.807 195.964 605.222 195.48C606.121 194.513 606.259 192.924 605.153 191.818H605.014ZM165.098 192.44L160.19 187.396C160.19 187.396 159.844 187.05 159.775 186.774C158.115 183.25 156.18 174.612 155.834 170.881V75.1105L154.451 73.7285H126.105C125.414 73.7285 124.792 74.0049 124.446 74.4886C123.685 75.2487 123.547 76.4925 124.308 77.4598C124.446 77.598 124.515 77.6671 124.653 77.8053C124.861 77.9435 124.999 78.0817 125.206 78.2199C125.76 78.6345 126.313 79.1182 126.797 79.6019C127.004 79.7401 127.142 79.9474 127.35 80.0856C127.834 80.5693 128.318 81.1221 128.732 81.813C131.913 86.7881 133.226 95.2873 133.572 101.092C134.886 120.716 134.816 149.253 133.572 168.946C133.157 175.511 131.498 186.705 126.589 191.68C126.451 191.818 126.244 192.025 126.105 192.163C124.999 193.131 125.068 194.651 125.898 195.549C126.313 195.964 126.866 196.24 127.557 196.24H163.577C163.577 196.24 164.269 196.171 164.545 196.033C164.683 196.033 164.822 195.895 164.96 195.826C165.098 195.757 165.167 195.618 165.306 195.549C166.066 194.72 166.204 193.338 165.306 192.371L165.098 192.44Z" fill="#601D1D"/>
<path d="M597.824 176.063C598.585 180.348 599.414 184.632 601.627 188.432C601.765 188.639 601.903 188.847 602.111 189.054L605.015 191.818C606.743 193.407 605.568 196.309 603.217 196.309H568.994C566.644 196.309 565.538 193.407 567.266 191.749C567.266 191.749 567.266 191.749 567.266 191.68C572.313 186.566 573.834 176.754 574.249 169.845C575.562 150.013 575.493 120.854 574.249 101.022C573.696 92.4541 572.244 84.9224 567.059 78.9108C565.538 77.1834 566.713 74.5576 568.994 74.5576H593.953C595.405 74.5576 596.511 75.7323 596.511 77.1143V98.673L597.755 175.925L597.824 176.063Z" fill="#601D1D"/>
<path d="M684.383 196.309H650.506C648.017 196.309 646.98 193.13 648.916 191.679C649.193 191.472 649.469 191.265 649.677 190.988C658.25 181.038 656.798 145.314 656.245 131.771C655.484 113.943 654.793 86.0965 634.536 79.1176C631.217 78.012 627.691 77.3901 624.234 77.8047C620.778 78.2193 617.666 79.6013 614.417 80.9142C614.002 81.0524 613.587 81.2597 613.173 81.2597C612.758 81.2597 612.274 81.1215 611.997 80.7069C611.029 79.1867 615.938 76.63 617.044 75.9391C620.224 74.0043 623.543 72.6223 627.207 72.0695C631.148 71.4477 635.089 71.5167 639.03 71.9313C687.702 76.63 676.225 137.368 678.576 169.913C679.198 178.62 680.926 186.082 686.319 191.956C687.909 193.683 686.734 196.378 684.452 196.378L684.383 196.309Z" fill="#601D1D"/>
<path d="M491.769 194.651C490.178 195.273 488.657 195.757 486.998 196.102C476.766 198.106 466.326 195.618 457.546 190.16C457.062 189.814 456.509 189.469 456.025 189.123C455.057 188.432 454.089 187.672 453.121 186.843C452.153 186.014 451.255 185.184 450.356 184.286C444.133 177.998 439.294 169.568 437.012 159.134C431.481 133.844 439.64 105.928 430.099 82.1585C429.96 81.8821 429.822 81.6057 429.615 81.3293L427.472 78.9108C426.642 77.9434 426.642 76.6997 427.195 75.7323C427.679 75.0413 428.439 74.5576 429.407 74.5576H454.504C455.057 74.5576 455.541 74.6958 455.956 74.9722C456.647 75.4559 457.062 76.216 457.131 77.1143L458.03 147.457C458.168 158.236 460.311 170.881 466.741 179.795C474.139 190.09 487.897 192.302 499.097 186.981C499.581 186.774 500.134 186.497 500.687 186.428C501.24 186.359 501.863 186.705 502.07 187.188C502.416 188.294 500.687 189.399 499.996 189.952C498.821 190.851 497.645 191.611 496.401 192.302C494.949 193.131 493.428 193.822 491.907 194.444L491.769 194.651Z" fill="#601D1D"/>
<path d="M546.732 195.48C546.317 195.964 545.626 196.309 544.865 196.309C542.376 196.309 539.888 196.309 537.399 196.309C533.873 196.309 530.208 196.517 526.89 195.065C524.747 194.098 522.88 192.578 521.428 190.712C519.769 188.639 519.008 186.705 518.524 184.148C517.418 178.413 516.727 172.608 516.45 166.804C516.105 160.24 516.589 153.675 516.796 147.111C517.349 131.702 517.695 116.224 516.174 100.815C515.552 94.8726 515.137 87.6863 512.026 82.4349C511.818 82.0894 511.611 81.7439 511.403 81.3984C511.196 81.0529 510.989 80.7765 510.712 80.5001C510.505 80.2237 510.228 79.9473 510.021 79.74C509.813 79.4636 509.537 79.2563 509.329 79.049C508.292 78.0816 508.292 76.6997 508.914 75.7323C509.398 75.0413 510.159 74.5576 511.127 74.5576H536.431C537.191 74.5576 537.813 74.834 538.297 75.3177C538.781 75.8014 539.058 76.4233 539.058 77.1143V172.47C539.058 174.612 542.031 184.493 543.206 186.912C544.105 188.778 545.142 190.09 546.248 191.196C546.386 191.334 546.525 191.541 546.732 191.68C546.87 191.818 547.009 191.956 547.078 192.094C547.216 192.232 547.285 192.44 547.354 192.578C547.769 193.545 547.562 194.651 546.87 195.342L546.732 195.48Z" fill="#601D1D"/>
<path d="M348.932 192.164L346.098 189.4C346.098 189.4 345.821 189.123 345.683 188.916C336.833 174.474 342.088 129.077 341.051 110.351C340.221 95.2183 337.248 82.6424 321.831 76.6308C320.172 76.0089 318.512 75.387 316.853 74.9033C316.853 74.9033 316.784 74.9033 316.715 74.9033C315.954 74.696 315.125 74.4887 314.364 74.2814C308.073 72.8304 301.574 72.4158 295.144 73.0377C294.245 73.1068 293.347 73.245 292.448 73.3832C287.539 74.005 282.63 75.1797 278.137 77.3909C277.514 77.7364 276.823 78.0819 276.201 78.4274C272.122 80.6385 268.388 83.4024 265.001 86.6501C261.959 89.4831 257.672 93.8363 256.013 98.3968C255.114 100.815 255.045 103.303 256.22 105.721C256.981 107.241 258.433 108.554 260.161 108.9C261.06 109.038 261.889 108.969 262.719 108.693C264.724 108.002 266.522 106.136 267.904 104.339C269.633 102.059 271.154 99.6406 272.606 97.2222C272.606 97.2222 272.606 97.2222 272.606 97.1531C275.025 93.0071 277.238 88.7921 280.28 85.0608C280.556 84.7153 280.833 84.4389 281.04 84.0934C281.317 83.817 281.593 83.4715 281.801 83.1952C282.216 82.7806 282.63 82.366 283.045 81.9514L283.322 81.7441C283.322 81.7441 283.598 81.4677 283.737 81.3986C284.151 80.984 284.635 80.5694 285.119 80.2239C290.097 76.2853 296.043 74.7651 302.334 75.4561C302.749 75.4561 303.095 75.5943 303.51 75.5943C303.994 75.6634 304.408 75.7325 304.892 75.8016C320.172 78.911 317.959 103.165 317.544 115.671C317.544 116.639 316.922 117.468 315.954 117.744C292.517 125.276 252.349 131.495 244.605 158.236C235.756 188.778 278.137 205.776 301.159 192.371C308.764 187.949 310.631 183.25 315.47 177.031C316.093 176.271 315.47 175.304 317.614 175.856C316.784 183.941 321.623 194.651 330.196 196.309C334.898 197.208 341.397 196.309 347.204 196.102C349.209 196.102 350.177 193.615 348.725 192.164H348.932ZM317.821 169.845C317.821 172.332 310.285 182.144 308.004 184.217C289.129 201.492 261.06 189.883 263.894 163.488C266.383 140.409 294.107 126.105 314.917 120.923C316.369 120.577 317.821 121.614 317.821 123.134V169.914V169.845Z" fill="#601D1D"/>
<path d="M805.026 192.163L802.192 189.399C802.054 189.261 801.915 189.123 801.777 188.916C800.809 187.327 799.979 185.323 799.288 183.042C799.219 182.835 799.15 182.628 799.081 182.351C794.103 163.764 798.044 126.865 797.145 110.351C797.145 110.005 797.145 109.729 797.145 109.383C796.453 98.1894 794.449 88.3774 786.774 81.813C786.567 81.6057 786.36 81.4675 786.152 81.2602C784.078 79.5328 781.589 78.0817 778.616 76.8379C778.409 76.7688 778.201 76.6997 777.994 76.5615C776.335 75.9396 774.675 75.3177 773.016 74.8341C773.016 74.8341 772.947 74.8341 772.878 74.8341C771.011 74.2813 769.075 73.8667 767.14 73.5212C766.932 73.5212 766.656 73.4521 766.448 73.383C761.47 72.5538 756.354 72.4156 751.376 72.9684C750.478 73.0375 749.579 73.1757 748.68 73.3139C743.771 73.9358 738.863 75.1104 734.369 77.3216C733.747 77.6671 733.055 78.0126 732.433 78.3581C729.944 79.7401 727.593 81.2602 725.381 82.9877C723.929 84.0933 722.546 85.2679 721.164 86.5808C718.398 89.2756 714.457 93.1452 712.591 97.3602C712.453 97.7057 712.314 97.9821 712.176 98.3276C711.277 100.746 711.208 103.234 712.383 105.652C713.144 107.172 714.596 108.485 716.324 108.831C717.223 108.969 718.053 108.9 718.882 108.623C718.882 108.623 718.882 108.623 718.951 108.623C720.956 107.932 722.685 106.136 724.067 104.339C725.796 102.059 727.317 99.6404 728.769 97.222C728.769 97.222 728.769 97.222 728.769 97.1529C731.189 93.007 733.401 88.792 736.443 85.0606C736.996 84.4388 737.48 83.8169 738.033 83.195C738.448 82.7804 738.863 82.3658 739.278 81.9512L739.554 81.7439C739.554 81.7439 739.831 81.4675 739.969 81.3984C739.969 81.3984 739.969 81.3984 740.038 81.3293C740.453 80.9838 740.868 80.5692 741.352 80.2237C746.675 76.0778 752.967 74.5577 759.742 75.5941C760.226 75.6632 760.641 75.7323 761.125 75.8014C761.47 75.8014 761.747 75.9396 762.023 76.0087C762.023 76.0087 762.023 76.0087 762.093 76.0087C765.065 76.8379 767.347 78.5654 769.075 80.8456C775.367 89.4138 773.984 105.928 773.708 115.602C773.708 115.74 773.708 115.948 773.638 116.086C773.5 116.846 772.947 117.468 772.117 117.744C769.214 118.712 765.964 119.61 762.646 120.577C762.646 120.577 762.577 120.577 762.507 120.577C739.07 127.211 707.544 134.812 700.768 158.236C691.919 188.708 734.092 205.707 757.184 192.509C757.184 192.509 757.322 192.509 757.322 192.44C764.927 188.017 766.794 183.319 771.633 177.1C772.187 176.409 771.772 175.649 773.085 175.787C773.293 175.787 773.5 175.787 773.777 175.925C772.947 184.01 777.787 194.72 786.36 196.378C787.604 196.586 788.918 196.724 790.3 196.724C794.241 196.862 798.804 196.309 803.021 196.171C803.16 196.171 803.229 196.171 803.367 196.171C805.372 196.171 806.34 193.684 804.888 192.233L805.026 192.163ZM764.098 184.217C745.223 201.492 717.154 189.883 719.988 163.488C722.477 140.409 750.201 126.105 771.011 120.923C772.463 120.577 773.915 121.614 773.915 123.134V169.914C773.915 172.401 766.379 182.213 764.098 184.286V184.217Z" fill="#601D1D"/>
<path d="M405.901 176.685C406.316 179.173 407.906 184.217 409.151 186.774C409.358 187.258 409.635 187.603 409.98 188.018L410.533 188.64C413.299 191.542 411.225 196.309 407.215 196.309H381.081C377.071 196.309 374.997 191.473 377.763 188.57C378.108 188.156 378.454 187.741 378.661 187.188C380.874 182.006 382.464 176.824 382.533 171.227C382.74 160.102 382.948 149.046 383.224 137.921C383.708 111.733 383.708 85.6136 383.363 59.4252C383.224 49.475 383.155 38.0738 377.417 29.5747C375.412 26.6034 377.624 22.5957 381.219 22.5957H404.38L405.763 23.9777V175.925C405.763 175.925 405.763 176.34 405.763 176.616L405.901 176.685Z" fill="#601D1D"/>
<path d="M184.941 76.4923C182.728 76.4923 181.346 74.4194 181.899 72.3464C182.452 70.1353 186.116 68.8915 187.913 67.9932C192.822 65.5748 195.104 64.331 197.523 59.0104C202.985 46.849 203.262 32.3384 197.938 20.1079C195.519 14.5109 191.509 9.67402 186.116 6.63369C183.558 5.18262 180.792 4.21524 177.958 3.66245C158.738 -0.27617 137.928 13.2671 132.397 31.7856C131.567 34.4804 131.636 38.9027 135.715 37.2444C139.103 35.8624 142.214 35.1714 146.501 37.1062C163.37 44.6379 147.261 71.0335 132.604 58.4576C126.313 53.0679 127.35 42.634 128.94 35.4478C132.673 18.5877 144.98 4.49163 162.264 0.829407C175.745 -2.00363 190.333 2.41867 199.528 12.8526C205.405 19.486 208.378 28.1924 210.106 36.6916C212.388 47.7473 211.766 59.2177 211.766 70.4808C211.766 72.2773 213.217 73.7284 215.015 73.7284H233.544C234.788 73.7284 235.894 74.4194 236.447 75.525L236.931 76.5614H213.217L211.835 77.9434V172.678C211.835 173.921 213.563 179.933 214.393 181.246C216.19 184.079 218.403 184.701 220.684 184.217C223.795 183.526 225.8 187.534 223.45 189.676C216.536 196.102 206.58 199.142 198.284 193.545C191.509 188.985 189.918 178.482 189.434 170.812C187.568 142.067 192.753 107.448 189.504 79.74C189.504 79.6018 189.504 79.5327 189.504 79.3945C189.365 77.7361 187.983 76.5614 186.323 76.5614H185.148L184.941 76.4923Z" fill="#601D1D"/>
<path d="M1038.02 79.8779C1033.8 78.0813 1029.58 76.9758 1025.02 76.2848C1024.4 76.2157 1023.64 76.0084 1023.36 75.4556C1023.15 75.041 1023.29 74.5573 1023.5 74.1427C1024.6 72.5534 1026.47 72.8298 1028.27 72.7607C1030.27 72.7607 1032.35 72.7607 1034.35 72.8989C1038.43 73.1753 1042.51 73.9354 1046.45 75.1101C1053.92 77.3212 1065.95 82.089 1066.64 90.9337C1066.78 93.0757 1066.22 95.356 1064.63 96.807C1063.39 97.9817 1061.59 98.4654 1059.86 98.3963C1059.52 98.3963 1059.17 98.3963 1058.83 98.2581C1056.82 97.9126 1054.96 96.807 1053.37 95.4942C1047.77 90.9337 1044.79 82.78 1037.95 79.8779H1038.02Z" fill="#601D1D"/>
<path d="M1030.27 193.614C1030.27 193.614 1030.69 194.028 1030.76 194.305C1030.9 194.719 1030.69 195.203 1030.34 195.479C1030 195.756 1029.58 195.963 1029.17 196.032C1028.2 196.17 1027.23 196.17 1026.26 196.17C1025.02 196.17 1023.84 196.101 1022.6 196.032C1011.68 195.272 998.263 193.268 989.69 185.944C984.505 181.522 981.186 174.473 982.569 167.84C983.191 164.661 985.404 161.414 988.653 161.207C991.903 160.999 994.461 163.97 996.051 166.873C997.987 170.535 1000.41 173.921 1003.17 177.03C1006.14 180.416 1009.53 183.525 1013.2 186.22C1016.86 188.915 1020.73 191.057 1024.95 192.439C1025.71 192.715 1026.47 192.923 1027.23 193.13C1027.58 193.199 1027.99 193.337 1028.34 193.406C1028.82 193.476 1029.31 193.406 1029.79 193.406C1030 193.406 1030.2 193.545 1030.34 193.683L1030.27 193.614Z" fill="#601D1D"/>
<path d="M1069.89 172.124C1068.37 175.994 1066.16 179.518 1063.39 182.558C1060.62 185.599 1057.58 187.948 1054.13 189.883C1052.4 190.85 1050.6 191.679 1048.73 192.439C1047.83 192.785 1046.87 193.13 1045.9 193.476C1044.93 193.821 1043.96 194.167 1042.99 194.167C1042.72 194.167 1042.51 194.167 1042.23 194.098C1041.82 193.96 1041.47 193.614 1041.54 193.199C1041.54 192.37 1043.27 192.094 1043.89 191.818C1044.93 191.334 1045.97 190.781 1046.87 190.159C1061.52 180.485 1054.54 163.28 1044.17 153.399C1026.4 136.4 975.172 126.036 993.216 91.1409C995.359 86.995 998.609 83.471 1002.41 80.7761C1003.93 79.6705 1005.52 78.7723 1007.18 77.9431C1008.01 77.5285 1008.84 77.1139 1009.67 76.7684C1010.57 76.3538 1011.54 76.1465 1012.51 75.8701C1012.92 75.7319 1013.33 75.5937 1013.68 75.801C1014.03 75.9392 1014.23 76.2847 1014.3 76.6302C1014.37 76.9757 1014.3 77.3212 1014.1 77.6667C1013.47 79.1868 1012.02 79.5323 1010.85 80.5688C1003.03 87.3405 1006.01 98.1199 1011.33 105.444C1027.92 128.247 1086.9 129.698 1069.89 172.332V172.124Z" fill="#601D1D"/>
<path d="M108.199 73.7285C110.688 73.7285 111.863 76.7689 109.996 78.4272C85.6604 100.884 75.7047 163.418 60.6329 193.753C58.0749 198.244 56.4156 196.655 54.4798 192.993C38.2327 161.898 27.6548 124.309 10.9929 93.4216C8.01999 87.9628 4.83971 83.4714 0.829786 79.3255C-0.829493 77.598 0.345829 74.6959 2.69647 74.6959H38.6475C40.8599 74.6959 42.1043 77.1834 40.8599 78.98C39.6154 80.7766 38.2327 82.5731 37.8179 84.7152C36.0203 93.698 39.2697 103.441 42.5192 111.733C46.5982 122.167 51.7835 132.117 56.6922 142.136C58.4897 145.729 60.2181 149.322 61.8774 153.054C62.6379 154.712 63.3293 156.37 63.9515 158.029C64.7811 160.171 64.9194 162.106 66.3713 164.109C66.6478 164.455 66.9935 164.87 67.4775 164.8C67.9614 164.8 68.238 164.179 68.3762 163.695C70.3121 157.821 72.3862 152.224 73.7689 146.144C74.2529 144.002 74.6677 141.86 75.4282 139.787C76.2578 137.506 77.0875 135.295 77.9171 133.015C83.5863 118.159 94.0951 99.0877 84.7616 83.4714C83.7246 81.7439 82.4801 80.2238 81.0974 78.7727C81.0282 78.7036 80.9591 78.6345 80.8208 78.5654C78.885 76.9761 80.0603 73.7976 82.5492 73.7976H108.199V73.7285Z" fill="#601D1D"/>
<path d="M958.164 43.1864C957.058 40.768 954.984 38.695 952.564 37.3821C952.011 37.1057 951.458 36.8294 950.905 36.6221C950.905 36.6221 950.352 36.4148 950.006 36.3457C948.554 35.9311 946.964 35.7238 945.512 35.862C934.381 36.8294 929.542 51.4782 938.184 58.4572C939.428 59.4246 940.673 60.1847 941.917 60.6684C942.47 60.8756 942.954 61.0138 943.507 61.152C944.06 61.2902 944.683 61.3593 945.236 61.4284C954.224 62.3267 962.589 53.0675 958.164 43.1864Z" fill="#601D1D"/>
<path d="M862.617 191.817L860.474 189.813C859.506 188.846 858.815 187.671 858.262 186.427C853.077 175.164 853.215 130.803 854.39 116.431V76.9753C854.252 75.6625 853.146 74.626 851.832 74.626H826.805C824.523 74.626 823.417 77.3208 824.938 78.9792C830.331 85.1981 831.644 93.0753 832.197 101.92C833.373 121.544 833.373 149.252 832.197 168.876C831.783 175.717 830.607 182.558 827.358 188.57C827.22 188.777 827.081 188.984 826.874 189.191L824.316 191.817C822.726 193.476 823.901 196.239 826.183 196.239H860.82C863.171 196.239 864.346 193.337 862.617 191.748V191.817Z" fill="#601D1D"/>
<path d="M970.125 191.886L966.668 188.432C966.668 188.432 966.322 188.086 966.253 187.879C964.317 184.217 961.552 173.368 961.552 169.844V77.252C961.552 76.561 961.275 75.87 960.791 75.4554C960.376 74.9717 959.685 74.6953 958.925 74.6953H933.966C933.206 74.6953 932.514 75.0408 932.1 75.5245C931.27 76.4228 931.063 77.9429 932.1 79.0485C937.354 84.991 938.737 92.5918 939.29 101.16C940.534 120.991 940.603 150.151 939.29 169.982C938.875 176.892 937.354 186.704 932.307 191.817C932.307 191.817 932.307 191.817 932.238 191.817C931.201 192.785 931.201 194.167 931.823 195.203C932.238 195.894 932.998 196.378 934.035 196.378H968.396C969.157 196.378 969.848 196.032 970.263 195.549C971.162 194.581 971.3 192.992 970.263 191.886H970.125Z" fill="#601D1D"/>
<path d="M918.964 85.337C919.24 86.719 919.033 88.3083 918.203 89.9666C916.89 92.5924 913.779 94.2507 910.806 93.8362C908.179 93.4907 906.035 91.7632 904.03 90.1048C900.435 87.1336 896.702 83.1259 892.485 81.1911C888.267 79.2564 882.875 79.3255 878.588 80.431C875.477 81.2602 872.573 82.7113 870.084 84.646C868.494 85.8898 866.074 90.1048 863.724 89.1374C862.894 88.792 862.41 87.8937 862.41 86.9954C862.41 86.0971 862.756 85.1988 863.171 84.4387C866.627 77.8744 875.546 73.6594 882.529 72.2774C890.134 70.7572 898.154 71.7246 905.344 74.4886C909.838 76.2851 917.927 79.8782 919.033 85.337H918.964Z" fill="#601D1D"/>
</g>
<defs>
<clipPath id="clip0_6001_1052">
<rect width="1073" height="197" fill="white"/>
</clipPath>
</defs>
</svg>
