<svg width="80" height="80" viewBox="0 0 80 80" fill="none" xmlns="http://www.w3.org/2000/svg">
<mask id="path-1-inside-1_6952_3055" fill="white">
<path d="M0 40C0 17.9086 17.9086 0 40 0C62.0914 0 80 17.9086 80 40C80 62.0914 62.0914 80 40 80C17.9086 80 0 62.0914 0 40Z"/>
</mask>
<path d="M0 40C0 17.9086 17.9086 0 40 0C62.0914 0 80 17.9086 80 40C80 62.0914 62.0914 80 40 80C17.9086 80 0 62.0914 0 40Z" fill="#601D1D"/>
<path d="M0 40M80 40M80 40M0 40M40 0M80 40M40 80M0 40M40 80V78.5922C18.6861 78.5922 1.40784 61.3139 1.40784 40H0H-1.40784C-1.40784 62.8689 17.1311 81.4078 40 81.4078V80ZM80 40H78.5922C78.5922 61.3139 61.3139 78.5922 40 78.5922V80V81.4078C62.8689 81.4078 81.4078 62.8689 81.4078 40H80ZM40 0V1.40784C61.3139 1.40784 78.5922 18.6861 78.5922 40H80H81.4078C81.4078 17.1311 62.8689 -1.40784 40 -1.40784V0ZM40 0V-1.40784C17.1311 -1.40784 -1.40784 17.1311 -1.40784 40H0H1.40784C1.40784 18.6861 18.6861 1.40784 40 1.40784V0Z" fill="#601D1D" mask="url(#path-1-inside-1_6952_3055)"/>
<path d="M47.16 45C47.56 44.1467 47.9467 43.4 48.32 42.76C48.72 42.12 49.1067 41.5867 49.48 41.16H26.16V39.48H49.48C49.1067 39.0267 48.72 38.48 48.32 37.84C47.9467 37.2 47.56 36.4667 47.16 35.64H48.56C50.24 37.5867 52 39.0267 53.84 39.96V40.68C52 41.5867 50.24 43.0267 48.56 45H47.16Z" fill="#F9F4EE"/>
</svg>
